<svg width="273" height="55" viewBox="0 0 273 55" fill="none" xmlns="http://www.w3.org/2000/svg">
<g clip-path="url(#clip0_75_5232)">
<path d="M93.7966 34.0251C93.7966 36.4517 93.4158 37.6376 92.4393 38.6607C91.4627 39.6839 89.7799 40.2778 87.9353 40.2778C86.0907 40.2778 84.4078 39.6839 83.4313 38.6607C82.4547 37.6356 82.074 36.4497 82.074 34.0251V13.0013H73.5V33.6488C73.5 38.5 74.4766 41.5734 76.8104 44.0529C79.1976 46.5324 82.725 47.7732 87.9333 47.7732C93.1416 47.7732 96.6691 46.5324 99.0562 44.0529C101.39 41.5734 102.367 38.5 102.367 33.6488V13.0013H93.7927V34.0271L93.7966 34.0251Z" fill="#141414"/>
<path d="M172.17 29.119C173.038 27.5549 173.472 25.7771 173.472 23.7817C173.472 20.0085 171.735 17.2056 169.402 15.5337C167.123 13.8617 163.868 13.2698 160.232 13.2698H146.611V47.5027H155.185V34.9405H158.658L165.766 47.5027H175.533L166.959 33.4861C169.346 32.5159 171.082 31.0066 172.168 29.119H172.17ZM163.217 27.7176C162.24 28.3644 161.1 28.6329 159.581 28.6329H155.185V19.7381H159.581C161.1 19.7381 162.24 20.0085 163.217 20.6534C164.193 21.4081 164.844 22.6488 164.844 24.158C164.844 25.6673 164.193 26.961 163.217 27.7156V27.7176Z" fill="#141414"/>
<path d="M269.744 29.7129C268.008 28.3115 265.783 27.502 265.023 27.2334C264.264 26.9629 260.628 25.7242 259.49 25.2929C258.349 24.8617 255.962 24.1071 255.962 22.1666C255.962 20.2261 257.59 19.3637 260.736 19.3637C263.883 19.3637 267.357 20.8729 269.419 22.7056L272.783 16.8842C270.504 14.8359 265.619 12.7327 260.845 12.7327C256.071 12.7327 253.682 13.7578 251.62 15.1593C249.558 16.5608 247.497 19.2559 247.497 23.031C247.497 26.8061 249.016 28.8525 250.752 30.2559C252.488 31.6573 254.713 32.4669 255.473 32.7354C256.341 33.0588 259.868 34.2446 261.007 34.6759C262.147 35.1071 264.426 35.8617 264.426 37.91C264.426 39.9583 262.69 40.9285 259.217 40.9285C255.745 40.9285 251.945 38.8803 249.884 37.0476L245.869 43.1944C249.016 46.1051 254.118 48.0456 259.217 48.0456C264.317 48.0456 267.249 46.6441 269.31 44.9193C271.372 43.1944 273 40.7149 273 36.9398C273 33.1646 271.481 31.1183 269.744 29.7149V29.7129Z" fill="#141414"/>
<path d="M137.616 32.1395V16.7862H131.821V12.9483H116.368V16.7862H113.115V12.9483H109.252V24.4638H118.301V20.626H129.892V26.959H109.254V47.5282H129.957V39.8191H134.53V47.4968H142.258V39.8191H137.621V32.1415L137.616 32.1395ZM119.601 41.0795C117.469 41.0795 115.739 39.3605 115.739 37.2416C115.739 35.1228 117.469 33.4038 119.601 33.4038C121.734 33.4038 123.464 35.1228 123.464 37.2416C123.464 39.3605 121.734 41.0795 119.601 41.0795Z" fill="#141414"/>
<path d="M65.2441 39.8133V16.8313H59.4617V13.0013H44.04V13.0111H36.4268V43.6433H42.1125V47.4615H49.8224V47.4733H65.2441V39.8133ZM57.5342 24.4913V39.8133H51.7459V35.7696H44.1366V20.6613H57.5322V24.4913H57.5342Z" fill="#141414"/>
<path d="M68.6928 55C70.9809 55 72.8357 53.1571 72.8357 50.8838C72.8357 48.6105 70.9809 46.7676 68.6928 46.7676C66.4047 46.7676 64.5498 48.6105 64.5498 50.8838C64.5498 53.1571 66.4047 55 68.6928 55Z" fill="#141414"/>
<path d="M30.1214 28.1841C30.1214 19.7753 23.2361 12.9346 14.7726 12.9346H2.40884V20.5574H6.6978C2.66926 23.18 0 27.7038 0 32.8373V32.8491C0 40.9403 6.62678 47.5242 14.7707 47.5242C17.5899 47.5242 20.2276 46.7343 22.4727 45.3662L22.4786 47.485L30.151 47.4635L30.1214 36.979V28.1841ZM14.7726 39.9015C10.8585 39.9015 7.67436 36.7379 7.67436 32.8491V32.8373C7.67436 28.9485 10.8585 25.7849 14.7726 25.7849C18.6868 25.7849 21.8709 28.9485 21.8709 32.8491C21.8709 36.7496 18.6868 39.9015 14.7726 39.9015Z" fill="#141414"/>
<path d="M194.722 32.1415V24.601V16.9391H197.227V13.109H189.517H181.805V20.7691H187.01V24.601V32.1415V39.8034H179.3V47.4635H187.01H194.722H202.431V39.8034H194.722V32.1415Z" fill="#141414"/>
<path d="M190.847 8.23236C193.135 8.23236 194.99 6.38948 194.99 4.11618C194.99 1.84288 193.135 0 190.847 0C188.559 0 186.704 1.84288 186.704 4.11618C186.704 6.38948 188.559 8.23236 190.847 8.23236Z" fill="#141414"/>
<path d="M236.195 32.3061V24.6285V20.7828H237.933V13.113H226.668V20.7828H228.467V24.6285V32.3061V39.9838H222.689H222.549V35.9558H214.941V32.608L214.945 32.3061V24.6285V16.9508H216.683V13.113H208.956V16.9508H207.218V24.6285V32.3061H207.23V36.1695V43.8295H212.915V47.6477H213.014L213.012 47.6614H220.627H220.74H222.689H228.337H231.032V39.9838H233.271V47.6614H240.999V39.9838H236.195V32.3061Z" fill="#141414"/>
</g>
<defs>
<clipPath id="clip0_75_5232">
<rect width="273" height="55" fill="white"/>
</clipPath>
</defs>
</svg>